<?xml version="1.0" encoding="UTF-8"?>
<svg width="16px" height="16px" viewBox="0 0 16 16" version="1.1" xmlns="http://www.w3.org/2000/svg" xmlns:xlink="http://www.w3.org/1999/xlink">
    <defs></defs>
    <g id="Website" stroke="none" stroke-width="1" fill="none" fill-rule="evenodd">
        <g id="Super-User---project-creator---source-s2-hidden-map" transform="translate(-16.000000, -107.000000)" fill="#4D4D4E">
            <g id="Body" transform="translate(-1.000000, 22.000000)">
                <g id="left-side" transform="translate(0.000000, 68.000000)">
                    <path d="M32.1111111,25.8888889 L17.8888889,25.8888889 C17.4,25.8888889 17,26.2888887 17,26.7777778 L17,32.1111111 C17,32.5999993 17.4,33 17.8888889,33 L32.1111111,33 C32.5999993,33 33,32.5999993 33,32.1111111 L33,26.7777778 C33,26.2888887 32.5999993,25.8888889 32.1111111,25.8888889 Z M20.5555556,31.2222222 C19.5777779,31.2222222 18.7777778,30.4222225 18.7777778,29.4444444 C18.7777778,28.4666663 19.5777779,27.6666667 20.5555556,27.6666667 C21.5333337,27.6666667 22.3333333,28.4666663 22.3333333,29.4444444 C22.3333333,30.4222225 21.5333337,31.2222222 20.5555556,31.2222222 Z M32.1111111,17 L17.8888889,17 C17.4,17 17,17.4 17,17.8888889 L17,23.2222222 C17,23.7111112 17.4,24.1111111 17.8888889,24.1111111 L32.1111111,24.1111111 C32.5999993,24.1111111 33,23.7111112 33,23.2222222 L33,17.8888889 C33,17.4 32.5999993,17 32.1111111,17 Z M20.5555556,22.3333333 C19.5777779,22.3333333 18.7777778,21.5333337 18.7777778,20.5555556 C18.7777778,19.5777774 19.5777779,18.7777778 20.5555556,18.7777778 C21.5333337,18.7777778 22.3333333,19.5777779 22.3333333,20.5555556 C22.3333333,21.5333337 21.5333337,22.3333333 20.5555556,22.3333333 Z" id="Fill-2"></path>
                </g>
            </g>
        </g>
    </g>
</svg>