<?xml version="1.0" encoding="UTF-8"?>
<svg width="5px" height="20px" viewBox="0 0 5 20" version="1.1" xmlns="http://www.w3.org/2000/svg" xmlns:xlink="http://www.w3.org/1999/xlink">
    <defs></defs>
    <g id="Style-guide" stroke="none" stroke-width="1" fill="none" fill-rule="evenodd">
        <g id="ICONS" transform="translate(-57.000000, -150.000000)" fill="#4D4D4E">
            <g id="Group" transform="translate(57.000000, 150.000000)">
                <path d="M2.5,20 C1.11928813,20 0,18.8807119 0,17.5 C0,16.1192881 1.11928813,15 2.5,15 C3.88071187,15 5,16.1192881 5,17.5 C5,18.8807119 3.88071187,20 2.5,20 Z M2.5,12.5 C1.11928813,12.5 0,11.3807119 0,10 C0,8.61928813 1.11928813,7.5 2.5,7.5 C3.88071187,7.5 5,8.61928813 5,10 C5,11.3807119 3.88071187,12.5 2.5,12.5 Z M2.5,5 C1.11928813,5 0,3.88071187 0,2.5 C0,1.11928813 1.11928813,0 2.5,0 C3.88071187,0 5,1.11928813 5,2.5 C5,3.88071187 3.88071187,5 2.5,5 Z" id="more-vert-2"></path>
            </g>
        </g>
    </g>
</svg>