<?xml version="1.0" encoding="UTF-8"?>
<svg width="20px" height="20px" viewBox="0 0 20 20" version="1.1" xmlns="http://www.w3.org/2000/svg" xmlns:xlink="http://www.w3.org/1999/xlink">
    <defs></defs>
    <g id="Website" stroke="none" stroke-width="1" fill="none" fill-rule="evenodd">
        <g id="Super-User---projects" transform="translate(-20.000000, -267.000000)" fill="#4D4D4E">
            <g id="navigation-drawer">
                <g id="list" transform="translate(0.000000, 181.000000)">
                    <g id="list-item-copy-2" transform="translate(20.000000, 86.000000)">
                        <g id="projects">
                            <path d="M17.1593312,10.9799988 C17.1993321,10.6599992 17.2293309,10.3399985 17.2293309,9.9999994 C17.2293309,9.66000022 17.1993302,9.33999954 17.1593312,9.01999986 L19.2693317,7.37000039 C19.4593322,7.22000079 19.5093314,6.95000034 19.3893325,6.73000009 L17.3893326,3.27000025 C17.2693318,3.05000048 16.9993333,2.97000008 16.7793321,3.05000048 L14.2893324,4.05000042 C13.769332,3.65000035 13.2093326,3.32000044 12.599332,3.07000046 L12.2193319,0.420000525 C12.1893312,0.180000049 11.9793313,0 11.7293313,0 L7.72933151,0 C7.47933152,0 7.26933149,0.180000049 7.23933176,0.420000045 L6.85933167,3.06999999 C6.24933205,3.31999997 5.68933166,3.6600001 5.16933171,4.04999995 L2.67933161,3.05000001 C2.44933161,2.95999985 2.18933187,3.05000001 2.06933152,3.26999978 L0.069331636,6.72999914 C-0.0606684662,6.94999938 -0.000668289782,7.21999888 0.189331519,7.36999944 L2.29933152,9.01999986 C2.25933156,9.33999954 2.22933136,9.66999942 2.22933136,9.9999994 C2.22933136,10.3299993 2.25933156,10.6599992 2.29933152,10.9799988 L0.189331749,12.6299983 C-0.000668289782,12.7799979 -0.0506682368,13.0499984 0.069331636,13.2699987 L2.06933152,16.7299985 C2.1893314,16.9499978 2.45933136,17.0299977 2.67933161,16.9499978 L5.16933124,15.9499978 C5.68933119,16.3499974 6.2493311,16.6799973 6.85933072,16.9299973 L7.23933081,19.5799968 C7.26933053,19.8199965 7.47933056,19.9999968 7.72933055,19.9999968 L11.7293303,19.9999968 C11.9793303,19.9999968 12.1893302,19.8199965 12.21933,19.5799968 L12.5993301,16.9299973 C13.2093297,16.6799973 13.7693301,16.3399972 14.2893305,15.9499978 L16.7793302,16.9499978 C17.0093296,17.039998 17.2693299,16.9499978 17.3893307,16.7299985 L19.3893306,13.2699987 C19.5093314,13.0499984 19.4593303,12.7799989 19.2693298,12.6299983 L17.1593292,10.9799988 L17.1593312,10.9799988 Z M9.72933139,13.4999992 C7.7993311,13.4999992 6.2293316,11.9299996 6.2293316,9.9999994 C6.2293316,8.06999912 7.7993311,6.49999961 9.72933139,6.49999961 C11.6593316,6.49999961 13.2293312,8.06999912 13.2293312,9.9999994 C13.2293312,11.9299996 11.6593316,13.4999992 9.72933139,13.4999992 Z" id="settings"></path>
                        </g>
                    </g>
                </g>
            </g>
        </g>
    </g>
</svg>