<?xml version="1.0" encoding="UTF-8"?>
<svg width="16px" height="11px" viewBox="0 0 16 11" version="1.1" xmlns="http://www.w3.org/2000/svg" xmlns:xlink="http://www.w3.org/1999/xlink">
    <defs></defs>
    <g id="Style-guide" stroke="none" stroke-width="1" fill="none" fill-rule="evenodd">
        <g id="UI-Elements" transform="translate(-146.000000, -2891.000000)" fill="#FFFFFF">
            <g id="click" transform="translate(30.000000, 2846.000000)">
                <g id="Group-5">
                    <g id="Group-2" transform="translate(100.000000, 25.000000)">
                        <path d="M21.1451104,20 L23,20 L23,27.6090786 C23,28.6474758 22.6798139,29.4722192 22.0394322,30.0833333 C21.3990504,30.6944475 20.5538083,31 19.5036803,31 C18.3848525,31 17.5212088,30.7143208 16.9127234,30.1429539 C16.3042381,29.571587 16,28.7766537 16,27.7581301 L17.8548896,27.7581301 C17.8548896,28.3344654 17.9959677,28.7679525 18.2781283,29.0586043 C18.5602888,29.3492562 18.9688021,29.4945799 19.5036803,29.4945799 C20.0042086,29.4945799 20.4029077,29.3268987 20.6997897,28.9915312 C20.9966717,28.6561636 21.1451104,28.1928666 21.1451104,27.601626 L21.1451104,20 Z M30.1397059,28.0955882 C30.1397059,27.6249976 29.9742664,27.2622562 29.6433824,27.0073529 C29.3124983,26.7524497 28.7156906,26.4950993 27.8529412,26.2352941 C26.9901918,25.9754889 26.3039241,25.6862761 25.7941176,25.3676471 C24.8186226,24.7548989 24.3308824,23.9558873 24.3308824,22.9705882 C24.3308824,22.1078388 24.6825945,21.3970616 25.3860294,20.8382353 C26.0894643,20.279409 27.0024454,20 28.125,20 C28.8701018,20 29.5343108,20.1372535 30.1176471,20.4117647 C30.7009833,20.6862759 31.1593121,21.0772033 31.4926471,21.5845588 C31.8259821,22.0919143 31.9926471,22.6544087 31.9926471,23.2720588 L30.1397059,23.2720588 C30.1397059,22.7132325 29.9644625,22.2757369 29.6139706,21.9595588 C29.2634786,21.6433808 28.7622582,21.4852941 28.1102941,21.4852941 C27.5024479,21.4852941 27.0306389,21.6151948 26.6948529,21.875 C26.3590669,22.1348052 26.1911765,22.4975467 26.1911765,22.9632353 C26.1911765,23.3553941 26.3725472,23.6825967 26.7352941,23.9448529 C27.098041,24.2071092 27.6960743,24.4620086 28.5294118,24.7095588 C29.3627493,24.9571091 30.0318602,25.238969 30.5367647,25.5551471 C31.0416692,25.8713251 31.4117635,26.2340666 31.6470588,26.6433824 C31.8823541,27.0526981 32,27.53186 32,28.0808824 C32,28.9730437 31.6580917,29.6825954 30.9742647,30.2095588 C30.2904378,30.7365222 29.362751,31 28.1911765,31 C27.4166628,31 26.7046601,30.8566191 26.0551471,30.5698529 C25.405634,30.2830868 24.9007371,29.8872574 24.5404412,29.3823529 C24.1801453,28.8774485 24,28.289219 24,27.6176471 L25.8602941,27.6176471 C25.8602941,28.2254932 26.0612725,28.6960768 26.4632353,29.0294118 C26.8651981,29.3627468 27.4411727,29.5294118 28.1911765,29.5294118 C28.8382385,29.5294118 29.3247533,29.3982856 29.6507353,29.1360294 C29.9767173,28.8737732 30.1397059,28.5269629 30.1397059,28.0955882 Z" id="JS"></path>
                    </g>
                </g>
            </g>
        </g>
    </g>
</svg>