<?xml version="1.0" encoding="UTF-8"?>
<svg width="18px" height="18px" viewBox="0 0 18 18" version="1.1" xmlns="http://www.w3.org/2000/svg" xmlns:xlink="http://www.w3.org/1999/xlink">
    <defs></defs>
    <g id="Website" stroke="none" stroke-width="1" fill="none" fill-rule="evenodd">
        <g id="Super-User---projects" transform="translate(-20.000000, -349.000000)" fill="#9B9B9B">
            <g id="navigation-drawer">
                <g id="list" transform="translate(0.000000, 181.000000)">
                    <g id="list-item-copy-3" transform="translate(20.000000, 167.000000)">
                        <g id="projects" transform="translate(0.000000, 1.000000)">
                            <path d="M7.08999967,12.5899993 L8.49999949,13.9999992 L13.4999992,8.99999946 L8.49999949,3.99999976 L7.08999967,5.40999952 L9.66999942,7.99999952 L0,7.99999952 L0,9.9999994 L9.66999942,9.9999994 L7.08999967,12.5899993 Z M15.999999,0 L1.99999988,0 C0.889999807,0 0,0.900000036 0,1.99999988 L0,5.99999964 L1.99999988,5.99999964 L1.99999988,1.99999988 L15.999999,1.99999988 L15.999999,15.999999 L1.99999988,15.999999 L1.99999988,11.9999993 L0,11.9999993 L0,15.999999 C0,17.0999993 0.889999807,17.9999989 1.99999988,17.9999989 L15.999999,17.9999989 C17.0999993,17.9999989 17.9999989,17.0999993 17.9999989,15.999999 L17.9999989,1.99999988 C17.9999989,0.900000036 17.0999993,0 15.999999,0 Z" id="log-out"></path>
                        </g>
                    </g>
                </g>
            </g>
        </g>
    </g>
</svg>